<?xml version="1.0" standalone="no"?>
<!DOCTYPE svg PUBLIC "-//W3C//DTD SVG 20010904//EN"
 "http://www.w3.org/TR/2001/REC-SVG-20010904/DTD/svg10.dtd">
<svg version="1.0" xmlns="http://www.w3.org/2000/svg"
 width="270.000000pt" height="270.000000pt" viewBox="0 0 270.000000 270.000000"
 preserveAspectRatio="xMidYMid meet">
<metadata>
Created by potrace 1.14, written by Peter Selinger 2001-2017
</metadata>
<g transform="translate(0.000000,270.000000) scale(0.100000,-0.100000)"
fill="#000000" stroke="none">
<path d="M742 2444 l-113 -116 1 -656 c0 -362 1 -663 0 -669 0 -9 -23 -13 -80
-13 -73 0 -83 -2 -104 -25 -14 -15 -34 -25 -50 -25 -16 0 -37 -10 -50 -25 -14
-15 -34 -25 -51 -25 -18 0 -40 -13 -66 -39 l-39 -39 0 -125 c0 -101 3 -129 16
-141 8 -9 20 -16 25 -16 5 0 9 -15 9 -32 0 -46 10 -56 55 -60 37 -3 40 -5 43
-35 3 -29 -5 -41 -72 -106 l-76 -74 0 -56 c0 -45 4 -58 19 -67 30 -16 1783
-14 1799 2 9 9 12 109 12 389 l0 377 25 16 c21 14 25 24 25 69 0 57 -6 70 -32
80 -16 6 -18 23 -18 166 0 103 4 162 11 166 6 4 69 7 140 7 129 -1 130 0 139
24 5 13 16 24 24 24 8 0 18 9 21 21 4 11 18 24 31 29 20 8 24 16 24 48 0 32 5
41 25 50 l25 12 0 336 c0 325 -1 336 -20 341 -10 3 -26 16 -35 29 -11 18 -25
24 -50 24 -29 0 -37 5 -45 25 -9 23 -14 25 -73 25 -58 0 -65 2 -75 25 -11 25
-13 25 -143 25 l-131 0 -47 50 -47 50 -176 0 -176 0 -16 25 -16 25 -278 0
-277 -1 -113 -115z m582 -19 l16 -25 210 0 210 0 6 -24 c9 -37 -12 -66 -47
-66 -24 0 -42 -11 -78 -50 -26 -27 -50 -50 -55 -50 -4 0 -23 -15 -41 -34 -24
-22 -35 -42 -35 -61 0 -21 -13 -41 -47 -74 l-48 -46 3 -233 3 -233 25 -11 c13
-6 24 -17 24 -25 0 -24 49 -33 190 -33 135 0 138 0 154 -24 11 -18 27 -26 53
-28 l38 -3 3 -183 2 -183 25 -11 c22 -10 25 -17 25 -69 0 -47 -4 -60 -19 -69
-11 -5 -23 -19 -26 -30 -10 -30 -23 -25 -74 30 -33 35 -55 50 -73 50 -26 0
-58 -22 -58 -41 0 -5 -7 -9 -15 -9 -9 0 -21 -11 -27 -25 -9 -20 -18 -25 -48
-25 -30 0 -39 5 -48 25 -10 23 -17 25 -72 25 -53 0 -61 -3 -76 -25 -12 -19
-25 -25 -50 -25 -27 0 -37 -5 -46 -25 -6 -14 -15 -25 -21 -25 -11 0 -64 55
-78 82 -5 10 -14 18 -20 18 -13 0 -73 -61 -82 -83 -9 -25 -36 -21 -47 8 -5 14
-16 25 -25 25 -8 0 -15 4 -15 10 0 5 -20 30 -45 55 -25 26 -50 55 -55 66 -17
30 -39 23 -89 -31 -45 -47 -82 -63 -96 -41 -3 5 -5 319 -5 697 0 643 1 688 17
705 10 10 45 48 78 83 l60 65 201 0 202 1 16 -25z m828 -150 c10 -23 17 -25
75 -25 57 0 64 -2 74 -24 6 -13 20 -27 30 -29 18 -5 19 -20 19 -306 l0 -301
-24 -12 c-20 -8 -26 -20 -28 -52 -3 -40 -4 -41 -38 -41 -34 0 -35 1 -38 43 -2
27 -9 45 -18 49 -8 3 -22 19 -30 35 -15 29 -15 29 -100 27 -46 -1 -86 0 -87 2
-1 2 -7 13 -13 24 -9 16 -23 20 -65 21 -78 3 -79 3 -79 19 0 27 -38 35 -164
35 -100 0 -128 -3 -140 -16 -9 -8 -16 -20 -16 -25 0 -5 -4 -9 -10 -9 -6 0 -10
48 -10 125 0 124 0 126 25 137 20 9 25 18 25 50 0 32 4 40 25 48 21 8 25 16
25 49 0 31 4 41 19 46 11 3 23 15 26 25 3 10 15 22 25 25 10 3 20 16 22 28 2
18 11 23 41 25 26 2 42 10 53 28 16 24 17 24 190 24 l174 0 12 -25z m-347
-647 c9 -20 19 -23 75 -26 57 -2 67 -6 75 -25 9 -20 16 -22 98 -20 63 1 87 -2
84 -10 -2 -8 -23 -11 -55 -9 -45 3 -54 0 -75 -22 -22 -23 -32 -26 -96 -26 -67
0 -72 2 -81 25 l-10 25 -165 0 -165 0 0 29 c0 21 6 32 19 36 11 3 23 15 26 26
6 17 16 19 133 19 122 0 128 -1 137 -22z m-1182 -757 c4 -1 7 -48 7 -105 0
-83 -3 -106 -16 -117 -9 -7 -20 -23 -25 -36 -5 -13 -14 -23 -22 -23 -7 0 -32
-20 -55 -45 -23 -25 -46 -45 -52 -45 -5 0 -15 -10 -21 -22 -6 -13 -13 -25 -15
-26 -1 -2 -30 24 -63 57 l-61 61 0 91 0 91 40 40 c32 32 45 39 64 34 14 -3 27
-15 31 -26 3 -10 15 -22 25 -25 14 -4 20 -17 22 -48 3 -39 5 -42 33 -42 29 0
30 2 33 47 3 43 0 49 -22 60 -15 6 -26 17 -26 25 0 7 -11 18 -25 23 -24 9 -31
21 -20 32 4 3 109 3 168 -1z"/>
<path d="M1081 2106 c-16 -19 -4 -327 13 -338 13 -9 98 -10 120 -2 12 5 16 21
16 73 0 63 -2 69 -25 79 -18 8 -25 19 -25 39 0 32 7 44 35 59 23 13 32 68 14
90 -16 19 -132 19 -148 0z"/>
<path d="M1762 2199 c-9 -11 -27 -25 -39 -30 -20 -7 -23 -16 -23 -58 0 -31 5
-53 15 -61 19 -15 65 -5 65 15 0 8 11 22 25 31 14 9 25 22 25 29 0 6 11 17 25
23 27 12 33 40 13 60 -20 20 -86 15 -106 -9z"/>
</g>
</svg>
